<?xml version="1.0" encoding="UTF-8"?>
<svg id="Layer_1" xmlns="http://www.w3.org/2000/svg" version="1.1" viewBox="0 0 129.86 135.41">
  <!-- Generator: Adobe Illustrator 30.2.1, SVG Export Plug-In . SVG Version: 2.1.1 Build 1)  -->
  <rect width="129.86" height="135.41" fill="#fff"/>
  <g>
    <g>
      <path d="M16.8,102.51v-25.14h21.46v3.29h-18.01v18.56h18.09v3.29h-8.93v10.57h10.81v3.29H15.31v-3.29h10.65v-10.57h-9.16Z" fill="#3e3a39"/>
      <path d="M48.91,102.51v-25.14h21.54v3.29h-18.09v7.6h18.09v3.29h-18.09v7.68h18.25v3.29h-9.16v10.57h10.81v3.29h-24.91v-3.29h10.65v-10.57h-9.09Z" fill="#3e3a39"/>
      <path d="M79.46,102.51v-14.25h18.17v-7.6h-18.25v-3.29h21.62v14.18h-18.09v7.68h18.25v3.29h-21.7ZM111.1,123.89v-50.2h3.45v50.2h-3.45Z" fill="#3e3a39"/>
    </g>
    <path d="M78.79,22.15c-1.04-1.03-4.3-3.07-2.68-4.99,1.16-1.38,3.16-.47,4.72.7l4.87-2.32c-.51-.53-6.12-6.18-10.46-3.11-2,1.41-2.44,3.84-2.42,5.8-7.16-3.22-15.16-2.35-20.66,1.93l-.5.4c-.32.3-.61.66-.85,1.06-1.25,2.14-.65,4.83,1.34,6.11l-5.52,9.44-.03.04c-.04.07-.1.16-.16.26-4.22,7.22-2.39,16.28,3.99,20.92l-.7,4.62,3.95-2.84c7.04,2.82,15.43-.04,19.53-7.03.06-.1.11-.19.15-.27l.02-.04,5.53-9.45c2.08,1.05,4.69.26,5.93-1.86.22-.38.38-.77.49-1.17l.16-.98c.83-6.14-1.64-12.64-6.69-17.24ZM68.07,49.84s-.01.02-.01.02l-.07.12s-.04.07-.04.08c-2.72,4.65-8.58,6.31-13.06,3.69-4.48-2.62-5.91-8.54-3.18-13.19,0-.01.03-.05.05-.08l.08-.12.02-.04s.01-.02.01-.02l5.52-9.44,16.23,9.5-5.55,9.48Z" fill="#40220f"/>
  </g>
</svg>